# xmcd
#
# Track frame offsets:
#	150
#	15403
#	34255
#	52027
#	66866
#	84595
#	103408
#	119989
#	142414
#	157306
#	170423
#	190495
#	205352
#	222141
#
# Disc length: 3228 seconds
#
# Revision: 0
# Processed by: cddbd v1.5.1PL0 Copyright (c) Steve Scherf et al.
# Submitted via: dBpowerAMP V4.0
#
DISCID=e40c9a0e
DTITLE=Melih Kibar - saat sabahýn dokuzu
DYEAR=2004
DGENRE=
TTITLE0=80.yýl marsi
TTITLE1=her sey seninle guzel
TTITLE2=tüm bir yasam
TTITLE3=kazandým
TTITLE4=içimdeki fýrtýna
TTITLE5=bir bakiþin yetti
TTITLE6=koca çinar
TTITLE7=sessiz veda
TTITLE8=durusma
TTITLE9=mi
TTITLE10=saat sabahin dokuzu
TTITLE11=bizim aile
TTITLE12=mastika
TTITLE13=sessiz veda 'doðus'
EXTD=
EXTT0=
EXTT1=
EXTT2=
EXTT3=
EXTT4=
EXTT5=
EXTT6=
EXTT7=
EXTT8=
EXTT9=
EXTT10=
EXTT11=
EXTT12=
EXTT13=
PLAYORDER=
